<?xml version="1.0" encoding="utf-8"?>
<!-- Generator: Adobe Illustrator 26.0.0, SVG Export Plug-In . SVG Version: 6.00 Build 0)  -->
<svg version="1.1" id="Layer_1" xmlns="http://www.w3.org/2000/svg" xmlns:xlink="http://www.w3.org/1999/xlink" x="0px" y="0px"
	 viewBox="0 0 20 20" style="enable-background:new 0 0 20 20;" xml:space="preserve">
<style type="text/css">
	.st0{fill:#020202;}
</style>
<g>
	<path class="st0" d="M14,10.3c0,0-0.4,0.9-0.4,2.3c0,1-0.4,3.2-0.9,4.2c-0.2,0.4-0.9,0.4-1-0.1c-0.5-1.6-0.8-5.7-1.7-5.7
		c-0.9,0-1.2,4-1.7,5.7c-0.2,0.5-0.8,0.5-1,0.1c-0.5-1-0.9-3.1-0.9-4.2c0-1.4-0.4-2.3-0.4-2.3C5.3,9.1,5.3,7.7,5.3,6.9
		c0-0.5,0.3-1.1,0.5-1.4c0.2-0.3,0.7-0.5,1-0.6c0.3,0,1,0,1.4,0L10,5.2L11.7,5c0.5-0.1,1.1-0.1,1.4,0c0.3,0.1,0.8,0.3,1,0.6
		c0.2,0.3,0.5,0.9,0.5,1.4C14.7,7.7,14.7,9.1,14,10.3L14,10.3z"/>
</g>
</svg>
